# xmcd
#
# Track frame offsets:
#	150
#	15491
#	34350
#	53746
#	68384
#	85796
#	105726
#	121509
#	136736
#	153915
#	168758
#	183746
#	200888
#	216463
#	231245
#
# Disc length: 3404 seconds
#
# Revision: 1
# Processed by: cddbd v1.5.2PL0 Copyright (c) Steve Scherf et al.
# Submitted via: audiograbber 1.83.01
#
DISCID=c40d4a0f
DTITLE=Various Artist - SA - Iskelmägaala - CD 2 - 2
DYEAR=2015
DGENRE=Pop
TTITLE0=Elastinen - Naurava Kulkuri
TTITLE1=Haloo Helsinki! - Beibi
TTITLE2=Jonne Aaron - Yksin
TTITLE3=Jukka Poika - Brand New Ihanuus
TTITLE4=Janna - Kaikki Hyvin
TTITLE5=Nopsajalka - Lupaan Olla
TTITLE6=Diandra - Onni On
TTITLE7=Lauri Tähkä - Kiivas Ja Kaunis
TTITLE8=Mitra - Äkkisyvää
TTITLE9=Jannika B - Itseni Herra
TTITLE10=Pauli Hanhiniemi - Muutkin Mokaa
TTITLE11=Tuure Kilpeläinen Ja Kaihon Karavaani - Lisätään Lämpöä
TTITLE12=Elonkerjuu - Tanssi Pois Paha
TTITLE13=Ressu Redford and Jussi Rainio - Suomipoika
TTITLE14=Pate Mustajärvi - Parempaa Elämää
EXTD=
EXTT0=
EXTT1=
EXTT2=
EXTT3=
EXTT4=
EXTT5=
EXTT6=
EXTT7=
EXTT8=
EXTT9=
EXTT10=
EXTT11=
EXTT12=
EXTT13=
EXTT14=
PLAYORDER=
